<?xml version="1.0" encoding="UTF-8" standalone="no"?>
<!-- Created with Inkscape (http://www.inkscape.org/) -->

<svg
   xmlns:dc="http://purl.org/dc/elements/1.1/"
   xmlns:cc="http://creativecommons.org/ns#"
   xmlns:rdf="http://www.w3.org/1999/02/22-rdf-syntax-ns#"
   xmlns:svg="http://www.w3.org/2000/svg"
   xmlns="http://www.w3.org/2000/svg"
   xmlns:sodipodi="http://sodipodi.sourceforge.net/DTD/sodipodi-0.dtd"
   xmlns:inkscape="http://www.inkscape.org/namespaces/inkscape"
   width="256"
   height="256"
   id="svg2"
   version="1.1"
   inkscape:version="0.48.1 r9760"
   sodipodi:docname="MultiTouch-Interface_Mouse-theme_2-fingers-Drag.svg"
   inkscape:export-filename="/home/leon/_DATA/gnu/img/20110914_MickeyMouse_Multi-Touch Interfaces Set/MultiTouch-Interface_Mouse-theme_2-fingers-Drag.png"
   inkscape:export-xdpi="90"
   inkscape:export-ydpi="90">
  <defs
     id="defs4" />
  <sodipodi:namedview
     id="base"
     pagecolor="#ffffff"
     bordercolor="#666666"
     borderopacity="1.0"
     inkscape:pageopacity="0.0"
     inkscape:pageshadow="2"
     inkscape:zoom="2"
     inkscape:cx="118.01683"
     inkscape:cy="114.54695"
     inkscape:document-units="px"
     inkscape:current-layer="layer1"
     showgrid="false"
     inkscape:showpageshadow="false"
     inkscape:window-width="1280"
     inkscape:window-height="970"
     inkscape:window-x="1280"
     inkscape:window-y="0"
     inkscape:window-maximized="1"
     showguides="true"
     inkscape:guide-bbox="true" />
  <metadata
     id="metadata7">
    <rdf:RDF>
      <cc:Work
         rdf:about="">
        <dc:format>image/svg+xml</dc:format>
        <dc:type
           rdf:resource="http://purl.org/dc/dcmitype/StillImage" />
        <dc:title></dc:title>
      </cc:Work>
    </rdf:RDF>
  </metadata>
  <g
     inkscape:label="Layer 1"
     inkscape:groupmode="layer"
     id="layer1"
     transform="translate(0,-796.36218)">
    <rect
       style="fill:#fff;stroke:none"
       id="rect5238"
       width="256"
       height="256"
       x="0"
       y="796.36218" />
    <g
       id="g5575"
       transform="translate(180,-1380)">
      <g
         transform="matrix(1.2311028,0,0,1.2311028,-113.74536,1085.6183)"
         id="g3915-6-1-5-2-2-3">
        <path
           style="fill:#ffffff;stroke:#000000;stroke-width:4.06139946;stroke-linecap:round;stroke-linejoin:round;stroke-miterlimit:4;stroke-opacity:1;stroke-dasharray:none"
           d="m 89.470687,1065.8714 c 3.726832,6.1263 -0.483788,10.0494 -6.15995,12.9466 -8.030164,4.0988 -27.897855,2.1019 -34.699927,-2.0136 -6.24272,-3.777 -9.012804,-9.3495 -6.040333,-14.1838"
           id="path3894-6-1-3-8-7-54"
           inkscape:connector-curvature="0"
           sodipodi:nodetypes="cssc" />
        <path
           style="fill:#ffffff;stroke:#000000;stroke-width:4.06139946;stroke-linecap:round;stroke-linejoin:round;stroke-miterlimit:4;stroke-opacity:1;stroke-dasharray:none"
           d="m 21.354167,1021.0446 c -0.857278,15.6815 13.892348,40.2979 31.364007,46.0182 9.021749,2.9538 29.32616,3.8464 36.493957,-1.431 12.273189,-9.0365 18.480019,-20.6858 21.285449,-35.0876 0.99446,-5.1051 1.70705,-10.9864 0.95737,-15.7018 C 108.26513,994.77888 96.24938,996.61131 91.777581,995.45648 89.830922,982.79146 91.072242,962.9 93.659564,944.65487 96.411215,925.25094 69.318793,930.14184 66.92846,948.3372 c -1.11979,8.52391 -3.056466,15.50931 -5.109029,34.59012 -3.145876,-10.27557 -8.431218,-25.0361 -10.205324,-35.2396 -2.925492,-16.82552 -27.057045,-6.73957 -23.047657,13.75845 2.730375,13.95905 7.069539,24.24345 9.738463,37.54058 -2.806163,2.25895 -16.05567,5.68515 -16.950746,22.05785 z"
           id="path3112-2-8-9-4-0-1"
           inkscape:connector-curvature="0"
           sodipodi:nodetypes="ssssscsscsscs" />
        <path
           sodipodi:nodetypes="ccscc"
           inkscape:connector-curvature="0"
           id="path3882-6-1-3-9-3-99"
           d="m 59.575715,982.54299 c 3.036906,12.66113 7.491675,18.46491 9.149472,21.41991 -2.120425,-7.88684 -2.867853,-9.83062 -4.493955,-18.41483 -0.275702,-1.45543 -0.356716,-3.19808 -0.116408,-5.32482 z"
           style="font-size:medium;font-style:normal;font-variant:normal;font-weight:normal;font-stretch:normal;text-indent:0;text-align:start;text-decoration:none;line-height:normal;letter-spacing:normal;word-spacing:normal;text-transform:none;direction:ltr;block-progression:tb;writing-mode:lr-tb;text-anchor:start;baseline-shift:baseline;color:#000000;fill:#000000;fill-opacity:1;stroke:none;stroke-width:5.78096485;marker:none;visibility:visible;display:inline;overflow:visible;enable-background:accumulate;font-family:Sans;-inkscape-font-specification:Sans" />
        <path
           sodipodi:nodetypes="cccc"
           inkscape:connector-curvature="0"
           id="path3884-6-1-1-1-6-1"
           d="m 93.585226,993.72823 -4.113707,-0.29062 c 0.761338,6.99839 2.466882,9.38869 5.326739,15.11559 -0.166629,-5.2958 -0.789097,-7.7078 -1.213032,-14.82497 z"
           style="font-size:medium;font-style:normal;font-variant:normal;font-weight:normal;font-stretch:normal;text-indent:0;text-align:start;text-decoration:none;line-height:normal;letter-spacing:normal;word-spacing:normal;text-transform:none;direction:ltr;block-progression:tb;writing-mode:lr-tb;text-anchor:start;baseline-shift:baseline;color:#000000;fill:#000000;fill-opacity:1;stroke:none;stroke-width:5.78096485;marker:none;visibility:visible;display:inline;overflow:visible;enable-background:accumulate;font-family:Sans;-inkscape-font-specification:Sans" />
        <path
           sodipodi:nodetypes="cccc"
           inkscape:connector-curvature="0"
           id="path3892-0-9-95-7-2-6"
           d="m 36.025358,998.02285 c 3.891185,16.75725 -1.201165,23.34255 -4.587303,31.90465 5.144876,-8.8636 12.140274,-11.7896 8.840704,-31.43916 z"
           style="font-size:medium;font-style:normal;font-variant:normal;font-weight:normal;font-stretch:normal;text-indent:0;text-align:start;text-decoration:none;line-height:normal;letter-spacing:normal;word-spacing:normal;text-transform:none;direction:ltr;block-progression:tb;writing-mode:lr-tb;text-anchor:start;baseline-shift:baseline;color:#000000;fill:#000000;fill-opacity:1;stroke:none;stroke-width:5.78096485;marker:none;visibility:visible;display:inline;overflow:visible;enable-background:accumulate;font-family:Sans;-inkscape-font-specification:Sans" />
      </g>
      <g
         transform="translate(360.5,1141)"
         id="g4671-4-89-9-1">
        <path
           style="font-size:medium;font-style:normal;font-variant:normal;font-weight:normal;font-stretch:normal;text-indent:0;text-align:start;text-decoration:none;line-height:normal;letter-spacing:normal;word-spacing:normal;text-transform:none;direction:ltr;block-progression:tb;writing-mode:lr-tb;text-anchor:start;baseline-shift:baseline;color:#000000;fill:#000000;fill-opacity:1;stroke:none;stroke-width:5;marker:none;visibility:visible;display:inline;overflow:visible;enable-background:accumulate;font-family:Sans;-inkscape-font-specification:Sans"
           d="m -442.90304,1106.3029 c 1.63961,-10.9314 21.50891,-18.8128 31.66314,-9.5656 -7.99241,-18.0153 -37.02527,-4.705 -31.66314,9.5656 z"
           id="path4616-1-3-4-9"
           inkscape:connector-curvature="0"
           sodipodi:nodetypes="ccc" />
      </g>
      <g
         id="g4671-5-9-3-7-0"
         transform="matrix(0.96352779,0.26760829,-0.26760829,0.96352779,696.02793,1286.3511)">
        <path
           style="font-size:medium;font-style:normal;font-variant:normal;font-weight:normal;font-stretch:normal;text-indent:0;text-align:start;text-decoration:none;line-height:normal;letter-spacing:normal;word-spacing:normal;text-transform:none;direction:ltr;block-progression:tb;writing-mode:lr-tb;text-anchor:start;baseline-shift:baseline;color:#000000;fill:#000000;fill-opacity:1;stroke:none;stroke-width:5;marker:none;visibility:visible;display:inline;overflow:visible;enable-background:accumulate;font-family:Sans;-inkscape-font-specification:Sans"
           d="m -442.90304,1106.3029 c 1.63961,-10.9314 21.50891,-18.8128 31.66314,-9.5656 -7.99241,-18.0153 -37.02527,-4.705 -31.66314,9.5656 z"
           id="path4616-9-1-2-2-3"
           inkscape:connector-curvature="0"
           sodipodi:nodetypes="ccc" />
      </g>
      <path
         sodipodi:nodetypes="ccccccccccccccccccccccccc"
         inkscape:connector-curvature="0"
         id="rect5404-5-9-9-1-5-0-1"
         d="m -27.34375,2330.2684 c -2.8967,5.0998 -7.65119,8.3524 -12,12 l 6.78125,0 c -0.12086,3.0293 -0.91779,7.7045 -1.625,11.3438 -3.56773,0.6843 -7.97907,1.6059 -11.34375,1.6875 l 0,-6.8437 c -3.83116,4.4996 -7.57839,9.2716 -12,12 5.09975,2.8966 8.35229,7.6511 12,12 l 0,-6.8126 c 3.02186,0.1206 7.67681,0.9502 11.3125,1.6563 0.68428,3.5674 1.60595,7.9799 1.6875,11.3437 l -6.8125,0 c 4.49967,3.8313 9.27166,7.5784 12,12 2.89678,-5.0997 7.61984,-8.3523 11.96875,-12 l -6.78125,0 c 0.12086,-3.0293 0.91775,-7.7044 1.625,-11.3437 3.56768,-0.6843 7.97909,-1.6059 11.34375,-1.6875 l 0,6.8438 c 3.83118,-4.4997 7.5784,-9.2718 12,-12 -5.09982,-2.8967 -8.35228,-7.6512 -12,-12 l 0,6.8124 c -3.02178,-0.1205 -7.67676,-0.9501 -11.3125,-1.6562 -0.6843,-3.5674 -1.60587,-7.9799 -1.6875,-11.3438 l 6.8125,0 c -4.49968,-3.8312 -9.24042,-7.5784 -11.96875,-12 z"
         style="fill:#000000;fill-opacity:1;stroke:none" />
    </g>
  </g>
</svg>
